<svg xmlns="http://www.w3.org/2000/svg" xmlns:xlink="http://www.w3.org/1999/xlink" width="160" height="56" viewBox="0 0 160 56">
  <defs>
    <clipPath id="clip-path">
      <rect id="Rectangle_843" data-name="Rectangle 843" width="160" height="56" rx="4" transform="translate(-2)" fill="black"/>
    </clipPath>
  </defs>
  <g id="randon" transform="translate(2)" clip-path="url(#clip-path)" fill="#000"/>
    <g id="vinhos-randon" transform="translate(-2 7.5)" fill="#000" >
      <path d="M1026.048,610.475a8.525,8.525,0,0,0,5.32-9.459,8.343,8.343,0,0,0-8.159-7.016H1013v27.86h4.638V610.988h2.65l7.155,9.785a2.629,2.629,0,0,0,2.12,1.087h4.306a3.4,3.4,0,0,0-.692-2.059Zm-2.9-4.243h-3.193a2.349,2.349,0,0,0-2.319,2.378v-9.853h5.631a3.6,3.6,0,0,1,2.6,1.119,3.757,3.757,0,0,1-2.72,6.356Z" transform="translate(-1013 -581.37)" fill="#807e7d"/>
      <path d="M1100.314,594.934a1.579,1.579,0,0,0-.563-.679,1.488,1.488,0,0,0-1.267-.19,1.534,1.534,0,0,0-.959.87L1086,621.86h5.3l1.567-3.737h12.1l1.05,2.5a1.986,1.986,0,0,0,1.842,1.233h2.981a.658.658,0,0,0,.554-.308.694.694,0,0,0,.053-.644Zm-5.453,18.432,4.058-9.68,4.058,9.68Z" transform="translate(-1061.818 -581.37)"/>
      <path id="Path_990" data-name="Path 990" d="M1193.9,594.019v26.161a1.342,1.342,0,0,1-1.325,1.359h-.1a1.644,1.644,0,0,1-1.325-.7l-1.878-2.647-11.594-14.688V621.2h-4.638V594.359a1.342,1.342,0,0,1,1.325-1.359h0a1.93,1.93,0,0,1,1.507.734l13.386,16.9V595.039a1.678,1.678,0,0,1,1.656-1.7h2.319A.671.671,0,0,1,1193.9,594.019Z" transform="translate(-1120.025 -580.71)" fill="#807e7d"/>
      <path id="Path_991" data-name="Path 991" d="M1453.9,594.019v26.161a1.342,1.342,0,0,1-1.325,1.359h-.1a1.644,1.644,0,0,1-1.325-.7l-1.878-2.647-11.594-14.688V621.2h-4.638V594.359a1.342,1.342,0,0,1,1.325-1.359h0a1.93,1.93,0,0,1,1.507.734l13.386,16.9V595.039a1.678,1.678,0,0,1,1.656-1.7h2.319A.671.671,0,0,1,1453.9,594.019Z" transform="translate(-1293.896 -580.71)" fill="#807e7d"/>
      <path id="Path_992" data-name="Path 992" d="M1346.745,591.5a14.614,14.614,0,1,0,14.244,14.61A14.43,14.43,0,0,0,1346.745,591.5Zm0,24.8a10.2,10.2,0,1,1,9.938-10.193A10.068,10.068,0,0,1,1346.745,616.3Z" transform="translate(-1226.661 -579.719)" fill="#807e7d"/>
      <path id="Path_993" data-name="Path 993" d="M1384.914,618.521a8.968,8.968,0,0,1-5.572,8.358l-2.117-.608a1.016,1.016,0,0,1-.725-.982v-5.321a.682.682,0,0,1,.368-.6c.994-.51,3.607-2.1,3.607-4.58a13.293,13.293,0,0,0-.994-4.254.17.17,0,0,1,.035-.184.159.159,0,0,1,.18-.033,8.971,8.971,0,0,1,5.217,8.208Z" transform="translate(-1256.086 -592.059)" fill="#807e7d"/>
      <path id="Path_994" data-name="Path 994" d="M1357.188,620.354v5.321a1.016,1.016,0,0,1-.725.982l-1.918.554h0a9.066,9.066,0,0,1-.636-16.308.162.162,0,0,1,.187.023.173.173,0,0,1,.045.187,12.863,12.863,0,0,0-.924,4.057c0,2.484,2.624,4.077,3.608,4.58A.682.682,0,0,1,1357.188,620.354Z" transform="translate(-1237.767 -592.446)" fill="#807e7d"/>
      <path id="Path_995" data-name="Path 995" d="M1385,609.87h0" transform="translate(-1261.77 -591.692)" fill="#807e7d"/>
      <path id="Path_996" data-name="Path 996" d="M1338.6,563.644a6.157,6.157,0,0,1-3.916-1.359l.875-1.019a4.938,4.938,0,0,0,3.041,1.019c1.988,0,1.988-.768,1.988-1.019,0-.34,0-1.359-1.988-1.359-1.239,0-3.313,0-3.313-2.039,0-.853.487-1.869,2.816-1.869a6.488,6.488,0,0,1,3.71,1.155l-.792,1.091a5.244,5.244,0,0,0-2.918-.887c-.663,0-1.491.088-1.491.51,0,.364,0,.68,1.988.68,2.074,0,3.313,1.019,3.313,2.718C1341.908,562.153,1341.477,563.644,1338.6,563.644Z" transform="translate(-1228.119 -556)" fill="#807e7d"/>
      <path id="Path_997" data-name="Path 997" d="M1297.807,556a3.775,3.775,0,1,0,4.307,3.737A4.051,4.051,0,0,0,1297.807,556Zm0,6.455a2.73,2.73,0,1,1,2.981-2.718A2.852,2.852,0,0,1,1297.807,562.455Z" transform="translate(-1200.581 -556)" fill="#807e7d"/>
      <rect id="Rectangle_1029" data-name="Rectangle 1029" width="1.325" height="7.475" transform="translate(59.296 0)" fill="#807e7d"/>
      <path id="Path_998" data-name="Path 998" d="M147.619,0l-3.644,7.475h-.331L140,0h1.325l2.484,5.1L146.294,0Z" transform="translate(-93.623 0)" fill="#807e7d"/>
      <path id="Path_999" data-name="Path 999" d="M209.294,0V7.475H208.3l-.331-.415-3.644-4.57V7.475H203V0h.663l.663.788,3.644,4.325V0Z" transform="translate(-135.753 0)" fill="#807e7d"/>
      <path id="Path_1000" data-name="Path 1000" d="M246.963,0V2.718h-4.638V0H241V7.475h1.325v-3.4h4.638v3.4h1.325V0Z" transform="translate(-161.165 0)" fill="#807e7d"/>
      <path id="Path_1001" data-name="Path 1001" d="M1265.947,594.5H1257.5v26.161a1.343,1.343,0,0,0,1.325,1.359h7.122a13.765,13.765,0,0,0,0-27.52Zm6.158,20.246a8.8,8.8,0,0,1-6.324,2.687h-3.644V599.087h3.644a8.944,8.944,0,0,1,8.261,5.662A9.346,9.346,0,0,1,1272.105,614.746Z" transform="translate(-1176.506 -581.7)" fill="#807e7d"/>
    </g>
  </g>
</svg>
