<svg xmlns="http://www.w3.org/2000/svg" width="32" height="32" viewBox="0 0 32 32"><path d="M14.667,19.667H4c-3.224,0-5-1.776-5-5V4C-1,.776.776-1,4-1h6.667a1,1,0,0,1,1,1V14.667a3.162,3.162,0,0,0,.707,2.293,3.162,3.162,0,0,0,2.293.707,1,1,0,0,1,0,2ZM4,1a3.162,3.162,0,0,0-2.293.707A3.162,3.162,0,0,0,1,4V14.667a3.162,3.162,0,0,0,.707,2.293A3.162,3.162,0,0,0,4,17.667h6.4a5.659,5.659,0,0,1-.733-3V1Z" transform="translate(2.667 10.667)" fill="#ee743f"/><path d="M2.667-1H6.813a1,1,0,0,1,.793.391A1,1,0,0,1,7.78.258a4.171,4.171,0,0,0-.113,1.076v4a1,1,0,0,1-1,1H0a1,1,0,0,1-1-1V2.667A3.671,3.671,0,0,1,2.667-1ZM5.673,1H2.667A1.669,1.669,0,0,0,1,2.667V4.333H5.667v-3Q5.667,1.161,5.673,1Z" transform="translate(6.667 5.333)" fill="#ee743f"/><path d="M0,7.667a1,1,0,0,1-1-1V0A1,1,0,0,1,0-1,1,1,0,0,1,1,0V6.667A1,1,0,0,1,0,7.667Z" transform="translate(18.667 10.667)" fill="#ee743f"/><path d="M0,7.667a1,1,0,0,1-1-1V0A1,1,0,0,1,0-1,1,1,0,0,1,1,0V6.667A1,1,0,0,1,0,7.667Z" transform="translate(24 10.667)" fill="#ee743f"/><path d="M1.333-1H4A2.336,2.336,0,0,1,6.333,1.333V6.667a1,1,0,0,1-1,1H0a1,1,0,0,1-1-1V1.333A2.336,2.336,0,0,1,1.333-1Zm3,6.667V1.333A.338.338,0,0,0,4,1H1.333A.338.338,0,0,0,1,1.333V5.667Z" transform="translate(18.667 22.667)" fill="#ee743f"/><path d="M0,6.333a1,1,0,0,1-1-1V0A1,1,0,0,1,0-1,1,1,0,0,1,1,0V5.333A1,1,0,0,1,0,6.333Z" transform="translate(8 17.333)" fill="#ee743f"/><path d="M12,27.667H4c-3.224,0-5-1.776-5-5V4C-1,.776.776-1,4-1h8c3.224,0,5,1.776,5,5V22.667C17,25.891,15.224,27.667,12,27.667ZM4,1a3.162,3.162,0,0,0-2.293.707A3.162,3.162,0,0,0,1,4V22.667a3.162,3.162,0,0,0,.707,2.293A3.162,3.162,0,0,0,4,25.667h8a3.162,3.162,0,0,0,2.293-.707A3.162,3.162,0,0,0,15,22.667V4a3.162,3.162,0,0,0-.707-2.293A3.162,3.162,0,0,0,12,1Z" transform="translate(13.333 2.667)" fill="#ee743f"/><path d="M2,2V30H30V2H2M0,0H32V32H0Z" fill="#ee743f" opacity="0"/></svg>