<svg xmlns="http://www.w3.org/2000/svg" xmlns:xlink="http://www.w3.org/1999/xlink" width="160" height="56" viewBox="0 0 160 56"><defs><clipPath id="a"><rect width="160" height="56" rx="4" transform="translate(1245.5 732)" fill="#807e7d"/></clipPath></defs><g transform="translate(-1245.5 -732)" clip-path="url(#a)"><path d="M1259.933,278.128a28.054,28.054,0,0,1-24.727,25.92c1.5-2.027,3.587-5.887,4.062-12.087.709-9.248-6.734-22.765-6.734-22.765s2.407,21.722-10.375,33.251A28.106,28.106,0,0,1,1204,276.132c0-.338.007-.676.021-1.01a9.482,9.482,0,0,0,4.055.832c6.38,0,19.495-4.268,19.495-4.268s-11.343,1.067-14.533,1.067-5.671-1.067-5.671-2.846c0-1.7,3.9-6.659,4.225-7.086a92.664,92.664,0,0,0-6.866,6.915,28.1,28.1,0,0,1,21.81-21.171,6.45,6.45,0,0,0-.737,2.846c0,6.3,5.838,15.018,6.022,15.288-.064-.27-2.123-8.924-2.123-11.375,0-2.49,1.063-4.624,3.545-4.624,2.442,0,8.663,3.1,8.858,3.2-1.921-2.4-6.43-4.649-9.148-5.848A28.049,28.049,0,0,1,1260,275.866c-2.882-4.425-22.15-5.958-22.15-5.958s16.659,4.624,16.659,7.825c0,2.088-7.117,5.876-7.433,6.043C1247.435,283.691,1257.707,281.2,1259.933,278.128Z" transform="translate(41.505 483.95)" fill="#807e7d"/><g transform="translate(70.991 -150)"><rect width="8.053" height="36.823" transform="translate(1319.456 889)" fill="#807e7d"/><path d="M1211.553,435.306a8.05,8.05,0,0,0,14.381,4.976v6.978a15.786,15.786,0,0,1-7.478,1.852c-8.26,0-14.956-6.184-14.956-13.806s6.7-13.806,14.956-13.806a15.786,15.786,0,0,1,7.478,1.852v6.978a8.05,8.05,0,0,0-14.381,4.976Z" transform="translate(34.009 476.999)" fill="#807e7d"/><path d="M1262.531,422a13.59,13.59,0,0,0-7.478,2.215,11.355,11.355,0,0,0-.92.673L1251.688,422H1247v32.214h8.053V445.1a13.59,13.59,0,0,0,7.478,2.215c7.306,0,13.231-5.666,13.231-12.655S1269.837,422,1262.531,422Zm-1.726,20.709a7.263,7.263,0,0,1-5.752-2.911V429.513a7.263,7.263,0,0,1,5.752-2.911c4.13,0,7.478,3.607,7.478,8.053S1264.936,442.709,1260.806,442.709Z" transform="translate(15.289 476.786)" fill="#807e7d"/><path d="M1322.932,442.209s-2.014,1.15-6.328,1.15c-8.648,0-8.629-6.328-8.629-6.328h16.682s.288-15.532-12.08-15.532c-12.655,0-12.08,14.956-12.08,14.956s0,12.655,14.381,12.655c4.89,0,7.179-1.179,9.819-2.054Zm-14.381-11.217a4.314,4.314,0,1,1,8.629,0v3.164h-8.629Z" transform="translate(-7.79 476.999)" fill="#807e7d"/></g></g></svg>