<svg xmlns="http://www.w3.org/2000/svg" width="160.604" height="56" viewBox="0 0 160.604 56"><g transform="translate(0.604)"><rect width="160" height="56" rx="4" fill="none"/><g transform="translate(0 7)"><path d="M942.61,355.5c-7.349,0-9.025,22.165-14.143,29.175a1.459,1.459,0,0,1-2.179.176c-2.616-2.438-4.718-8.168-4.718-12.623,0-5.818,4.313-16.727,8.676-16.727Z" transform="translate(-898.247 -344.772)" fill="#807e7d"/><path d="M18.793,42H15.68C8,42,0,0,0,0H12.364s.08.359.231,1.009h2.9S23.273,42,26.909,42Z" fill="#807e7d"/><path d="M26.909,42.5H15.68c-1.991,0-4-2.241-6.144-6.852A100.85,100.85,0,0,1,4.478,21.136C1.547,10.735-.471.2-.491.094L-.6-.5H12.764l.088.391s.05.221.141.618H15.9l.077.407c.019.1,1.96,10.3,4.32,20.386,1.385,5.918,2.64,10.641,3.731,14.038,1.938,6.03,2.838,6.158,2.876,6.161ZM.607.5c.468,2.366,2.312,11.42,4.835,20.37C10.5,38.82,14.029,41.5,15.68,41.5h9.849a24.074,24.074,0,0,1-2.414-5.751c-1.1-3.413-2.369-8.167-3.766-14.13-2.107-9-3.885-18.1-4.272-20.11H12.2l-.09-.387C12.05.87,12,.661,11.965.5Z" fill="rgba(0,0,0,0)"/><path d="M0,0H1.909a1,1,0,0,1,1,1V14.545a0,0,0,0,1,0,0H0a0,0,0,0,1,0,0V0A0,0,0,0,1,0,0Z" transform="translate(61.091 20.953)" fill="#807e7d"/><path d="M1104.591,370.227a.728.728,0,0,0-.727-.727H1091.5v2.909h5.091v11.636h2.909V372.409h5.091Z" transform="translate(-944.591 -348.548)" fill="#807e7d"/><path d="M1045.5,381.136h-5.091V369.5H1037.5v14.546h8.727v-2.182A.728.728,0,0,0,1045.5,381.136Z" transform="translate(-929.864 -348.548)" fill="#807e7d"/><path d="M1012.955,372.409V369.5H1003.5v14.546h9.454v-2.182a.728.728,0,0,0-.727-.727h-5.818v-2.909h5.818v-2.909h-5.818v-2.909Z" transform="translate(-920.591 -348.548)" fill="#807e7d"/><path d="M962.136,369.5l-4.364,10.909L953.409,369.5H950.5l5.818,14.546h2.909l5.818-14.546Z" transform="translate(-906.137 -348.548)" fill="#807e7d"/><path d="M1079.6,384.5a19.175,19.175,0,0,1-5.6-1.154l1.246-3.257a15.808,15.808,0,0,0,4.351.933c.692,0,2.487-.249,2.487-1.391,0-.793-.372-1.123-2.84-1.777-1.981-.525-4.975-1.319-4.975-4.483,0-2.959,2.231-4.87,5.684-4.87a15.727,15.727,0,0,1,5.317,1.184l-1.4,3.2a12.35,12.35,0,0,0-3.921-.9,1.575,1.575,0,0,0-1.777,1.391c0,.394.15.636,2,1.126,2.044.542,5.464,1.449,5.464,5.135C1085.636,382.452,1083.1,384.5,1079.6,384.5Z" transform="translate(-939.818 -348.318)" fill="#807e7d"/><path d="M988.046,372.409a4.364,4.364,0,0,1,0,8.727h-3.636v-8.727h3.636m0-2.909H981.5v14.546h6.545a7.273,7.273,0,0,0,0-14.546Z" transform="translate(-914.591 -348.548)" fill="#807e7d"/><path d="M1025.955,372.409a1.818,1.818,0,1,1,0,3.636h-2.546v-3.636h2.546m0-2.909H1020.5v14.546h2.909v-5.091h2.546a4.727,4.727,0,0,0,0-9.455Z" transform="translate(-925.228 -348.548)" fill="#807e7d"/><path d="M1064.137,384.046h2.909l-5.818-14.546h-2.909l-5.818,14.546h2.909l1.309-3.273h6.109Zm-6.255-6.182,1.891-4.727,1.891,4.727Z" transform="translate(-933.955 -348.548)" fill="#807e7d"/></g></g></svg>