<svg xmlns="http://www.w3.org/2000/svg" xmlns:xlink="http://www.w3.org/1999/xlink" width="24" height="24" viewBox="0 0 24 24"><defs><clipPath id="a"><rect width="24" height="24" transform="translate(510 703)" fill="#ddd"/></clipPath></defs><g transform="translate(-510 -703)" clip-path="url(#a)"><g transform="translate(-231.697 348.389)"><path d="M753.7,356.611a10,10,0,1,0,10,10A10,10,0,0,0,753.7,356.611Zm0,18a8,8,0,1,1,8-8A8.009,8.009,0,0,1,753.7,374.611Z" fill="#eb5b2b"/><path d="M757.919,368.932l-3.057-1.822a1.207,1.207,0,0,1-.535-.889v-4.1a1,1,0,0,0-2,0v4.154a3.253,3.253,0,0,0,1.466,2.525l3.1,1.85a1,1,0,1,0,1.025-1.718Z" fill="#eb5b2b"/></g></g></svg>