<svg xmlns="http://www.w3.org/2000/svg" xmlns:xlink="http://www.w3.org/1999/xlink" width="32" height="32" viewBox="0 0 32 32"><defs><clipPath id="a"><rect width="32" height="32" transform="translate(168 1462)" fill="none"/></clipPath></defs><g transform="translate(-168 -1462)" clip-path="url(#a)"><path d="M27.707,1.708A1,1,0,0,0,26.293.293L23.751,2.836,21.208.293a1,1,0,0,0-1.414,1.414L22.337,4.25,20.5,6.086,14.708.292c-.011-.01-.026-.013-.037-.023a.986.986,0,0,0-1.377.023h0L4.25,9.336,2.415,7.5,4.957,4.958l0,0L8.207,1.707A1,1,0,0,0,6.793.293L4.25,2.836,1.707.293A1,1,0,0,0,.293,1.708L2.835,4.251.293,6.793a1,1,0,0,0,0,1.415l0,0,2.54,2.54L.293,13.293a1,1,0,0,0-.194.293c-.006.012-.017.021-.023.034A1,1,0,0,0,0,14H0c0,.031.015.058.018.089a.976.976,0,0,0,.057.288,1,1,0,0,0,.218.33l2.542,2.542L.293,19.792a1,1,0,0,0-.218.329,1.007,1.007,0,0,0-.066.334c0,.015-.009.029-.009.044H0a1,1,0,0,0,.076.38,1.015,1.015,0,0,0,.12.181.949.949,0,0,0,.1.146L2.835,23.75.293,26.292a1,1,0,1,0,1.414,1.415l3.25-3.25h0l5.792-5.792L12.585,20.5,6.793,26.292a1,1,0,0,0,1.415,1.414l2.542-2.543,2.543,2.544a1,1,0,0,0,1.414-1.415l-2.543-2.543L14,21.913l5.793,5.793h0a1,1,0,0,0,1.087.218,1,1,0,0,0,.327-.218l6.5-6.5a1,1,0,1,0-1.414-1.415l-2.542,2.543L21.915,20.5l2.54-2.54,0,0,3.249-3.25a1,1,0,1,0-1.414-1.415L23.75,15.836,21.915,14l2.541-2.542h0l3.249-3.25a1,1,0,0,0-1.414-1.415L23.751,9.336,21.915,7.5ZM12.164,4.25,14,2.414,19.792,8.2l0,0,2.542,2.543L20.5,12.587ZM19.793,21.2h0l2.543,2.544L20.5,25.586l-5.794-5.794-2.543-2.543L14,15.412Zm-9.749-4.664h0L4.25,22.335,2.415,20.5,4.95,17.964l.007-.005,5.8-5.8L12.587,14Zm.01-6.506-.011.006-5.794,5.8L2.415,14,10.75,5.665,12.587,7.5ZM20.5,19.085l-5.793-5.794L12.166,10.75,14,8.915l5.793,5.793,0,0,2.539,2.54Z" transform="translate(170 1464)" fill="#ee743f"/></g></svg>