<svg xmlns="http://www.w3.org/2000/svg" xmlns:xlink="http://www.w3.org/1999/xlink" width="24" height="24" viewBox="0 0 24 24"><defs><clipPath id="a"><rect width="24" height="24" rx="8" transform="translate(1158 702)" fill="#ccc"/></clipPath></defs><g transform="translate(-1158 -702)" clip-path="url(#a)"><g transform="translate(382 349.002)"><path d="M788,367.31a4,4,0,1,1,4-4A4,4,0,0,1,788,367.31Zm0-6a2,2,0,1,0,2,2A2,2,0,0,0,788,361.31Z" fill="#eb5b2b"/><path d="M788,357h0c2.6,0,5.937,1.3,6.8,4.961.973,4.118-1.854,7.771-4.4,10.114a3.59,3.59,0,0,1-4.811,0c-2.539-2.345-5.362-6.006-4.39-10.122C782.067,358.3,785.4,357,788,357m0-2c-3.858,0-7.716,2.163-8.744,6.491-1.2,5.081,2.1,9.392,4.979,12.053a5.591,5.591,0,0,0,7.526,0c2.891-2.661,6.189-6.962,4.989-12.043-1.024-4.334-4.887-6.5-8.75-6.5Z" fill="#eb5b2b"/></g></g></svg>