<svg xmlns="http://www.w3.org/2000/svg" xmlns:xlink="http://www.w3.org/1999/xlink" width="24" height="24" viewBox="0 0 24 24"><defs><clipPath id="a"><rect width="24" height="24" transform="translate(832 703)" fill="none"/></clipPath></defs><g transform="translate(-832 -703)" clip-path="url(#a)"><g transform="translate(486.454 230.377)"><path d="M362.546,478.123c2.159,0,3,.842,3,3v7c0,2.159-.841,3-3,3h-10c-2.159,0-3-.841-3-3v-7c0-2.158.841-3,3-3h10m0-2h-10c-3,0-5,1.5-5,5v7c0,3.5,2,5,5,5h10c3,0,5-1.5,5-5v-7c0-3.5-2-5-5-5Z" fill="#eb5b2b"/><path d="M357.546,485.665a3.988,3.988,0,0,1-2.5-.884l-3.126-2.5a1,1,0,0,1,1.249-1.562l3.126,2.5a1.989,1.989,0,0,0,2.5,0l3.126-2.5a1,1,0,1,1,1.249,1.562l-3.126,2.5A3.988,3.988,0,0,1,357.546,485.665Z" fill="#eb5b2b"/></g></g></svg>