<svg xmlns="http://www.w3.org/2000/svg" xmlns:xlink="http://www.w3.org/1999/xlink" width="32" height="32" viewBox="0 0 32 32"><defs><clipPath id="a"><rect width="32" height="32" transform="translate(605 1480)" fill="none" stroke="#ee743f" stroke-width="1"/></clipPath></defs><g transform="translate(-605 -1480)" clip-path="url(#a)"><g transform="translate(-172 1083)"><path d="M2.5-1A3.5,3.5,0,1,1-1,2.5,3.5,3.5,0,0,1,2.5-1Zm0,5A1.5,1.5,0,1,0,1,2.5,1.5,1.5,0,0,0,2.5,4Z" transform="translate(798 417.572)" fill="#ee743f"/><path d="M2.5-1A3.5,3.5,0,1,1-1,2.5,3.5,3.5,0,0,1,2.5-1Zm0,5A1.5,1.5,0,1,0,1,2.5,1.5,1.5,0,0,0,2.5,4Z" transform="translate(784 417.572)" fill="#ee743f"/><path d="M818.551,424.2h-1.919a1,1,0,0,1,0-2h1.919a.064.064,0,0,0,.061-.061V416.68a.059.059,0,0,0-.013-.038l-3.709-4.619a.061.061,0,0,0-.048-.023H810v10.143c0,.022,0,.043,0,.061h1.122a1,1,0,0,1,0,2h-2.061a1,1,0,0,1-1-1,2.59,2.59,0,0,0-.022-.451,3.507,3.507,0,0,1-.039-.61V411a1,1,0,0,1,1-1h5.843a2.05,2.05,0,0,1,1.608.771l3.708,4.617a2.066,2.066,0,0,1,.454,1.291v5.463A2.064,2.064,0,0,1,818.551,424.2Z" transform="translate(-13.612 -3.286)" fill="#ee743f"/><path d="M795.327,420.918H789.02a1,1,0,0,1,0-2h5.368q0-.03,0-.061v-13.8a.064.064,0,0,0-.061-.061H781.061a.064.064,0,0,0-.061.061v13.8a.064.064,0,0,0,.061.061h2.653a1,1,0,0,1,0,2h-2.653A2.064,2.064,0,0,1,779,418.857v-13.8A2.064,2.064,0,0,1,781.061,403h13.265a2.064,2.064,0,0,1,2.061,2.061v13.8a1.344,1.344,0,0,0,.075.253,1.362,1.362,0,0,1-.067,1.305A1.229,1.229,0,0,1,795.327,420.918Z" fill="#ee743f"/></g></g></svg>