<svg xmlns="http://www.w3.org/2000/svg" width="82" height="72" viewBox="0 0 82 72"><g transform="translate(-0.036)"><path d="M1.855,71.292s-3.59-21.628-.684-40.373C3.565,17.041,8.523,6.227,17.242,1Q40.017,6.833,62.2,14.878l-19.49,5.407-6.838-5.948,4.616-.541a32.211,32.211,0,0,0-6.326-2.343,25.7,25.7,0,0,0-5.129-.721s-1.881,1.262-1.881,9.012l-.171,11.175L67.5,16.861l14.532,6.669S16.729,64.082,1.855,71.292Z" transform="translate(0 0.708)"/><path d="M2.843,68.574s-3.932-20.933-.855-39.34C4.553,15.7,9.169,5.414,17.717,0L36.352,5.053c10.771,3.068,25.3,8.481,25.3,8.481L42.507,18.948l-6.668-6.136,4.787-.722a43.391,43.391,0,0,0-6.155-1.985,47.043,47.043,0,0,0-5.984-1.083s-1.71,1.8-1.71,9.2a91.214,91.214,0,0,0,.342,11.008L66.613,15.519l14.361,6.5s-63.77,39.7-78.3,46.738Z" transform="translate(0.55)" fill="#eb5b2b"/></g></svg>