<svg xmlns="http://www.w3.org/2000/svg" xmlns:xlink="http://www.w3.org/1999/xlink" width="160" height="56" viewBox="0 0 160 56"><defs><clipPath id="a"><rect width="160" height="56" rx="4" fill="#807e7d"/></clipPath></defs><g clip-path="url(#a)"><g transform="translate(42 0)"><path d="M208.891,657.011a16.6,16.6,0,0,1-.241,2.826,18.606,18.606,0,0,1-7.319,11.549,6.513,6.513,0,0,0,.707-2.985,6.226,6.226,0,0,0-2.111-4.775,14.358,14.358,0,0,0,7.078-7.716c-3.586-6.252-10.768-9.271-19.042-9.271a22.772,22.772,0,0,0-14.661,5.186,9.352,9.352,0,0,0,1.326-4.908,9.144,9.144,0,0,0-1.689-5.441A25.155,25.155,0,0,1,186.3,637.75c10.394,0,19.146,4.3,21.784,13.283A21.135,21.135,0,0,1,208.891,657.011Z" transform="translate(-172.94 -637.75)" fill="#807e7d"/><g transform="translate(0.731 40.906)"><path d="M186.258,756.222c-.848,3.521-3.391,4.026-5.282,4.026-2.2,0-3.423-.473-4.515-1.613a7.069,7.069,0,0,1,.326-9.21,5.808,5.808,0,0,1,4.01-1.239c1.875,0,4.254.342,5.346,3.635l-3.178.7a2.064,2.064,0,0,0-2.07-1.63c-2.217,0-2.38,2.168-2.38,3.293,0,1.662.277,3.357,2.249,3.357,1.842,0,2.168-1.548,2.331-2.265Z" transform="translate(-174.913 -748.186)" fill="#807e7d"/><path d="M210.005,759.507c.407-1.842,1.581-2.608,4.369-2.608,2.428,0,3.374.31,4.042,1.06a3.549,3.549,0,0,1,.669,2.054v3.733a3.215,3.215,0,0,0,.407,1.793h-3.048a2.33,2.33,0,0,1-.343-1.027,4.163,4.163,0,0,1-3.26,1.223c-2.364,0-3.081-1.336-3.081-2.429,0-1.874,1.532-2.282,2.641-2.51a16.15,16.15,0,0,0,3.521-.9c0-.489-.016-1.076-1.125-1.076-1.32,0-1.516.489-1.7,1.01Zm5.917,2.021c-.277.1-.669.229-1.076.342-.081.016-.554.147-.652.163-.522.146-1.19.407-1.19,1.026,0,.131.033.864,1.043.864a1.785,1.785,0,0,0,1.875-1.874Z" transform="translate(-196.964 -753.672)" fill="#807e7d"/><path d="M241.705,757.095h3v1.255h.033a3.081,3.081,0,0,1,2.689-1.451c2.315,0,3.554,2.021,3.554,4.548,0,2.559-1.32,4.287-3.57,4.287a3.049,3.049,0,0,1-2.461-1.011v4.043h-3.244Zm4.71,6.243c.978,0,1.321-.978,1.321-1.956,0-.408,0-2.086-1.369-2.086a1.4,1.4,0,0,0-1.027.457,2.293,2.293,0,0,0-.424,1.6C244.916,761.985,245.128,763.338,246.415,763.338Z" transform="translate(-217.175 -753.672)" fill="#807e7d"/><path d="M275.124,757.095v1.369h.032a2.124,2.124,0,0,1,2.021-1.565,3.087,3.087,0,0,1,1.565.44l-.995,2.314a1.987,1.987,0,0,0-.913-.244c-1.386,0-1.483,1.907-1.483,3.293v2.837h-3.244v-8.443Z" transform="translate(-236.401 -753.672)" fill="#807e7d"/><path d="M296.207,748.714v2.217h-3.244v-2.217Zm0,3.228v8.443h-3.244v-8.443Z" transform="translate(-249.577 -748.518)" fill="#807e7d"/><path d="M311.422,757.095v1.222a3.452,3.452,0,0,1,2.918-1.418,2.534,2.534,0,0,1,2.575,1.418,3.505,3.505,0,0,1,2.934-1.418c2.853,0,2.885,2.494,2.885,3.326v5.314h-3.244V760.73c0-1.059-.652-1.32-1.027-1.32-1.01,0-1.272.913-1.272,1.761v4.369h-3.244v-4.662c0-.473,0-1.467-1.027-1.467-1.092,0-1.272,1.076-1.272,1.826v4.3h-3.244v-8.443Z" transform="translate(-259.415 -753.672)" fill="#807e7d"/><path d="M352.607,759.507c.407-1.842,1.581-2.608,4.368-2.608,2.429,0,3.374.31,4.042,1.06a3.55,3.55,0,0,1,.669,2.054v3.733a3.215,3.215,0,0,0,.407,1.793h-3.048a2.335,2.335,0,0,1-.343-1.027,4.164,4.164,0,0,1-3.26,1.223c-2.364,0-3.081-1.336-3.081-2.429,0-1.874,1.532-2.282,2.641-2.51a16.149,16.149,0,0,0,3.521-.9c0-.489-.016-1.076-1.125-1.076-1.321,0-1.516.489-1.7,1.01Zm5.917,2.021c-.277.1-.669.229-1.076.342-.082.016-.554.147-.652.163-.522.146-1.19.407-1.19,1.026,0,.131.033.864,1.043.864a1.785,1.785,0,0,0,1.875-1.874Z" transform="translate(-287.197 -753.672)" fill="#807e7d"/></g><path d="M313.54,670.56a19.444,19.444,0,0,0,.833,5.73,24.463,24.463,0,0,1-14.909,5.012c-10.494,0-18.728-5.075-21.735-14.683a28.983,28.983,0,0,1-1.23-8.653,19.4,19.4,0,0,1,.478-4.267,24.466,24.466,0,0,1,7.564-12.52,9.554,9.554,0,0,0-.633,3.452,8.859,8.859,0,0,0,1.967,5.719,17.74,17.74,0,0,0-7.215,9.171c3.567,8.156,11.249,11.408,20.806,11.408,5.782,0,11.09-2.815,15.238-7.06A18.959,18.959,0,0,0,313.54,670.56Z" transform="translate(-238.704 -639.909)" fill="#807e7d"/></g></g></svg>