<svg xmlns="http://www.w3.org/2000/svg" xmlns:xlink="http://www.w3.org/1999/xlink" width="160" height="56" viewBox="0 0 160 56"><defs><clipPath id="a"><rect width="160" height="56" rx="4" fill="#807e7d"/></clipPath></defs><g clip-path="url(#a)"><path d="M1837.809,453.108l2.014,2.014s-8.058,8.863-12.087,8.863-5.237-1.612-5.237-4.835c0-6.043,33.439-49.151,33.439-49.151a6.574,6.574,0,0,0,8.058,1.612c-2.74,4.305-32.285,43.472-34.87,48.307a.4.4,0,0,0,.467.582C1831.708,459.819,1837.809,453.108,1837.809,453.108Z" transform="translate(-1708.025 -410)" fill="#807e7d"/><path d="M1752.945,412.385a7.352,7.352,0,0,0-4.859-1.885c-3.787,0-7.574,1.853-11.256,4.826a30.409,30.409,0,0,0-12.916-2.409c-24.173,0-28.2,19.338-28.2,22.561s.806,6.446,7.252,6.446c14.5,0,20.144-13.7,20.144-16.921s-1.611-5.64-6.446-5.64c-5.641,0-10.475,8.058-10.475,8.058l1.611.806s4.834-6.446,9.669-6.446c2.417,0,2.619.806,2.619,2.578,0,7.421-13.9,15.954-17.928,15.954-3.223,0-4.029-1.612-4.029-4.835,0-13.7,18.533-20.95,27.4-20.95a20.507,20.507,0,0,1,9.629,2.24c-12.973,11.764-24.455,36.388-29.821,41.239-4.545-.7-8.146-1.579-12.038-1.579-6.446,0-13.3,2.417-13.3,5.5s3.626,4.166,9.266,4.166a36.684,36.684,0,0,0,17.155-4.021c37.878-1.305,40.054-26.727,40.054-29.015,0-1.611.717-10.007-5.946-15.446,2.329-2.917,4.754-4.7,7.558-4.7a8.725,8.725,0,0,1,3.731,1.152A1.021,1.021,0,0,0,1752.945,412.385Zm-64.484,52.1c-2.417,0-5.641,0-5.641-1.612s4.029-2.014,8.057-2.014a56.956,56.956,0,0,1,8.863,1.209A27.687,27.687,0,0,1,1688.461,464.486Zm54.791-33.036c0,12.086-13.7,27.4-27.4,27.4-1.45,0-2.812-.048-4.093-.129,13.818-10.346,20.4-29.039,27.25-39.047C1741.6,422.377,1743.252,426.236,1743.252,431.45Z" transform="translate(-1680 -410.097)" fill="#807e7d"/><path d="M1785.313,458.032s-5.64,7.252-7.252,6.446,14.5-23.367,14.5-23.367h-9.207s-16.146,25.41-18.995,22.561c-.806-.806,12.892-16.921,12.892-20.95,0-3.223-3.223-3.223-5.64-3.223-4.835,0-11.281,8.058-11.281,8.058l2.417.806s4.835-5.64,5.64-4.835-12.892,16.921-12.892,20.95,3.223,4.029,5.64,4.029c4.834,0,9.669-5.64,9.669-5.64s-.209,5.64,4.73,5.64,12.191-9.669,12.191-9.669Z" transform="translate(-1694.836 -415.73)" fill="#807e7d"/><path d="M1809.192,455.2c11.192-1.209,16.116-7.252,16.116-9.669,0-1.612,0-4.029-4.835-4.029-12.892,0-24.978,14.5-24.978,21.755,0,.806-.806,6.446,7.252,6.446s16.921-12.892,16.921-12.892L1817.25,456s-9.669,10.475-14.5,10.475C1799.523,466.478,1806.864,457.212,1809.192,455.2Zm9.669-11.281c1.611,1.612-4.835,9.669-8.863,8.863C1810,452.781,1817.25,442.306,1818.861,443.917Z" transform="translate(-1702.676 -416.119)" fill="#807e7d"/><path d="M1870.881,452.183a23.351,23.351,0,0,1-2.667,1.773c1.878-3.537,3.07-6.865,3.07-9.024,0-3.626-2.417-4.432-6.043-4.432-7.784,0-19.741,13.7-19.741,22.561,0,7.252,3.223,7.252,6.043,7.252,4.109,0,9.379-5.157,13.432-11.039,2.006-.524,4.553-2.079,7.518-5.479Zm-7.437,3.191a17.53,17.53,0,0,0-1.829-.371c-.806,0-1.612.806-1.612,2.417a2.065,2.065,0,0,0,1.192,1.547c-3.328,5.052-6.728,8.928-9.25,8.928-1.209,0-2.119-.081-1.611-1.612.806-2.417,4.786-9.186,9.387-15.221,2.8-3.666,3.908-6.535,7.534-7.34,1.176-.266,2.014.806,1.208,2.417C1867,449.081,1865.265,452.32,1863.444,455.374Z" transform="translate(-1712.493 -415.924)" fill="#807e7d"/></g></svg>