<svg xmlns="http://www.w3.org/2000/svg" width="182" height="40" viewBox="0 0 182 40"><g transform="translate(3.016 25.035)"><path d="M131.407,151.79v5.764h5.711V155.6l2.115.441v1.075c0,1.71-.546,2.15-2.256,2.15h-5.429c-1.71,0-2.256-.441-2.256-2.15v-4.795c0-1.71.546-2.15,2.256-2.15h5.429c1.71,0,2.256.441,2.256,2.15v.864l-2.115.335V151.79Z" transform="translate(-129.292 -148.406)" fill="#eb5b2b"/><path d="M145.209,151.808h5.764c1.463,0,1.939.335,1.939,1.763V157.5c0,1.41-.476,1.763-1.939,1.763h-5.764c-1.481,0-1.939-.353-1.939-1.763v-3.931C143.27,152.143,143.746,151.808,145.209,151.808Zm5.887,6.028v-4.653h-6.011v4.653Z" transform="translate(-129.292 -148.406)" fill="#eb5b2b"/><path d="M156.561,151.808h1.251l6.328,4.953v-4.953h1.639v7.456h-1.251l-6.31-5.024v5.024h-1.657Z" transform="translate(-129.172 -148.406)" fill="#eb5b2b"/><path d="M171.385,153.148v1.569h4.847c1.481,0,1.939.353,1.939,1.763V157.5c0,1.392-.458,1.763-1.939,1.763h-4.847c-1.481,0-1.957-.37-1.957-1.763v-.212l1.622-.3v.881h5.482v-1.71H171.7c-1.463,0-1.957-.353-1.957-1.763v-.828c0-1.41.494-1.763,1.957-1.763h4.424c1.375,0,1.957.317,1.957,1.622v.176l-1.569.335v-.793Z" transform="translate(-129.116 -148.406)" fill="#eb5b2b"/><path d="M186.262,159.264h-1.816v-6.116h-3.6v-1.34h9.025v1.34h-3.613Z" transform="translate(-129.066 -148.406)" fill="#eb5b2b"/><path d="M192.732,151.808h6.716c1.2,0,1.745.405,1.745,1.445v1.763c0,1.022-.546,1.428-1.745,1.428h-1.022l3.543,2.82h-2.609l-3.12-2.82h-1.71v2.82h-1.8Zm1.8,1.287v2.062h4.142c.546,0,.828-.106.828-.6v-.864c0-.494-.282-.6-.828-.6Z" transform="translate(-129.013 -148.406)" fill="#eb5b2b"/><path d="M206.516,157.871H211.7v-6.063h1.833V157.5c0,1.392-.476,1.763-1.957,1.763H206.64c-1.481,0-1.939-.37-1.939-1.763v-5.693h1.816Z" transform="translate(-128.962 -148.406)" fill="#eb5b2b"/><path d="M219,153.183v4.653h4.9V156.25l1.833.37v.881c0,1.392-.476,1.763-1.957,1.763H219.12c-1.5,0-1.939-.388-1.939-1.763v-3.931c0-1.393.458-1.763,1.939-1.763h4.653c1.481,0,1.957.353,1.957,1.763v.723l-1.833.264v-1.375Zm.494,8.8a9.553,9.553,0,0,0,2.2.37c.617,0,.934-.229.934-.652,0-.494-.405-.687-1.234-.687-.106,0-.229.018-.353.018v-1.763h.776v.811h.141c1.357,0,2.027.529,2.027,1.657,0,1.022-.74,1.639-2.15,1.639a9.574,9.574,0,0,1-2.344-.37Z" transform="translate(-128.908 -148.406)" fill="#eb5b2b"/><path d="M232.517,151.808h1.745l4.495,7.456h-2.045l-.934-1.639h-4.935l-.934,1.639h-1.816Zm1.622-1.463a2.347,2.347,0,0,1-.6-.088l-.723-.212a2.073,2.073,0,0,0-.546-.088.718.718,0,0,0-.74.582h-.864c.229-1.269.776-1.886,1.657-1.886a2.475,2.475,0,0,1,.723.123l.758.212a1.775,1.775,0,0,0,.441.053.746.746,0,0,0,.74-.635h.864c-.265,1.322-.777,1.939-1.711,1.939Zm.9,5.923-1.745-3.1-1.675,3.1Z" transform="translate(-128.854 -148.406)" fill="#eb5b2b"/><path d="M242.88,151.808h5.764c1.463,0,1.939.335,1.939,1.763V157.5c0,1.41-.476,1.763-1.939,1.763H242.88c-1.481,0-1.939-.353-1.939-1.763v-3.931C240.942,152.143,241.417,151.808,242.88,151.808Zm5.887,6.028v-4.653h-6.011v4.653Z" transform="translate(-128.801 -148.406)" fill="#eb5b2b"/><path d="M264.158,151.79v5.764h5.711V155.6l2.115.441v1.075c0,1.71-.546,2.15-2.256,2.15H264.3c-1.71,0-2.256-.441-2.256-2.15v-4.795c0-1.71.546-2.15,2.256-2.15h5.429c1.71,0,2.256.441,2.256,2.15v.864l-2.115.335V151.79Z" transform="translate(-128.707 -148.406)" fill="#eb5b2b"/><path d="M276.2,151.808h1.816v7.456H276.2Z" transform="translate(-128.553 -148.406)" fill="#eb5b2b"/><path d="M280.815,151.808h2.062l3.155,5.411,2.979-5.411H290.9l-4.318,7.456h-1.251Z" transform="translate(-128.553 -148.406)" fill="#eb5b2b"/><path d="M293.489,151.808H295.3v7.456h-1.816Z" transform="translate(-128.553 -148.406)" fill="#eb5b2b"/><path d="M299.128,151.808h1.833v6.064h5.852v1.393h-7.685Z" transform="translate(-128.553 -148.406)" fill="#eb5b2b"/></g><path d="M152.134,128.543c-4.912,0-8.9,3.643-8.9,8.14s3.984,8.14,8.9,8.14,8.9-3.643,8.9-8.14S157.047,128.543,152.134,128.543Zm0,12.933a4.812,4.812,0,1,1,5.238-4.793A5.03,5.03,0,0,1,152.134,141.476Z" transform="translate(-126.275 -123.371)"/><path d="M130.028,136.675a5.092,5.092,0,0,0,5.349,4.788h6.2v3.36h-6.2a10.259,10.259,0,0,1-2.292-.259,7.975,7.975,0,0,1,0-15.779,10.259,10.259,0,0,1,2.292-.259h6.2v3.36h-6.2A5.091,5.091,0,0,0,130.028,136.675Z" transform="translate(-126.275 -123.371)"/><path d="M127.878,21.452,132.7,10.7l3.787,6.935h-6.2l2.066,3.814h10.328l-9.3-16.3h-2.754l-7.574,16.3Z" transform="translate(0.562)" fill="#eb5b2b"/><path d="M133.282,3.326h0L136.791,0h-3.51l-2.507,3.326Z" transform="translate(0.551)" fill="#eb5b2b"/><path d="M159.99,21.452h4.074l-.679-16.3h-4.074Z" transform="translate(0.738)" fill="#eb5b2b"/><path d="M181.262,18.057v3.4H165.644l-.679-16.3h4.074l.536,12.9Z" transform="translate(0.738)" fill="#eb5b2b"/><path d="M277.373,144.823h-.587a9.894,9.894,0,0,1-1.386-.1c-4.308-.6-7.606-3.978-7.606-8.051,0-4.267,3.624-7.772,8.238-8.118q.372-.03.755-.03h6.963l-.067.168-.8,1.993-.48,1.2h-5.62a4.812,4.812,0,1,0,0,9.577h3.772l-.027-1.408-.081-1.952H276.7l1.342-3.36h6.292l.084,2.016.164,3.972.171,4.093Z" transform="translate(-125.537 -123.371)" fill="#eb5b2b"/><path d="M196.189,138.235a5.028,5.028,0,0,1-4.77,6.588h-11.6v-3.467h11.25a1.56,1.56,0,1,0,0-3.121h-6.058a4.854,4.854,0,1,1,0-9.709h11.77l-1.731,3.467H185.015a1.387,1.387,0,0,0,0,2.774h6.4a5.015,5.015,0,0,1,4.77,3.468Z" transform="translate(-126.035 -123.371)"/><path d="M88.136,5.155,86.749,8.622H81.895v12.83H78.428V8.622H71.84V5.155Z" transform="translate(0.321)"/><path d="M225.633,138.18,232.3,144.8l-4.886.021-6.682-6.644-.094-.093.347-.569,1.678-2.786h4.508a1.379,1.379,0,1,0,0-2.758h-7.628V144.73h-3.467v-16.2h11.443a5.093,5.093,0,0,1,.693.048,4.824,4.824,0,0,1,.347,9.495,4.929,4.929,0,0,1-1.04.11Z" transform="translate(-125.873 -123.371)"/><path d="M52.549,5.155v16.3H49.223l-9.11-10.028-.2,10.028H36.585l.333-16.3h3.326l8.98,9.293V5.155Z" transform="translate(0.163)"/><path d="M249.374,128.94v8.091a7.884,7.884,0,0,1-15.767,0V128.94h3.216v7.987a4.668,4.668,0,0,0,9.336,0V128.94Z" transform="translate(-125.797 -123.371)"/></svg>