<svg xmlns="http://www.w3.org/2000/svg" xmlns:xlink="http://www.w3.org/1999/xlink" width="165" height="56" viewBox="0 0 165 56"><defs><clipPath id="a"><rect width="165" height="56" rx="4" fill="#807e7d"/></clipPath></defs><g clip-path="url(#a)"><g transform="translate(0 9.75)"><path d="M468.263,569.263A9.138,9.138,0,0,0,459,578.246v18.245h2.895V584.758a9.4,9.4,0,0,0,6.368,2.47,8.987,8.987,0,1,0,0-17.965Zm0,15.158a6.178,6.178,0,1,1,6.369-6.175A6.278,6.278,0,0,1,468.263,584.421Z" transform="translate(-459 -559.991)" fill="#807e7d"/><path d="M487.913,569.263a8.987,8.987,0,1,0,9.263,8.983A9.139,9.139,0,0,0,487.913,569.263Zm0,15.158a6.178,6.178,0,1,1,6.368-6.175A6.278,6.278,0,0,1,487.913,584.421Z" transform="translate(-458.386 -559.995)" fill="#807e7d"/><path d="M512.053,569.263a9.139,9.139,0,0,0-9.264,8.983v18.245h2.895V584.758a9.4,9.4,0,0,0,6.369,2.47,8.987,8.987,0,1,0,0-17.965Zm0,15.158a6.178,6.178,0,1,1,6.368-6.175A6.278,6.278,0,0,1,512.053,584.421Z" transform="translate(-457.632 -559.991)" fill="#807e7d"/><path d="M531.7,569.263a8.987,8.987,0,1,0,0,17.965h9.264v-8.982A9.139,9.139,0,0,0,531.7,569.263Zm6.368,15.158H531.7a6.178,6.178,0,1,1,6.368-6.175Z" transform="translate(-457.018 -559.995)" fill="#807e7d"/><path d="M581.667,569.263a8.987,8.987,0,1,0,0,17.965h9.263v-8.982A9.138,9.138,0,0,0,581.667,569.263Z" transform="translate(-455.456 -559.995)" fill="#807e7d"/><path d="M551.351,569.263a9.4,9.4,0,0,0-6.368,2.47V560h-2.895v18.246a9.268,9.268,0,1,0,9.263-8.983Zm0,15.158a6.178,6.178,0,1,1,6.369-6.175A6.277,6.277,0,0,1,551.351,584.421Z" transform="translate(-456.403 -560)" fill="#807e7d"/><path d="M601.316,572.07a6.494,6.494,0,0,1,3.173.82l1.458-2.425a9.456,9.456,0,0,0-4.631-1.2,9.192,9.192,0,0,0-9.147,7.579,8.625,8.625,0,0,0-.115,1.4v1.4h15.464a6.332,6.332,0,0,1-6.2,4.772,6.551,6.551,0,0,1-3.236-.853l-1.471,2.414a9.464,9.464,0,0,0,4.707,1.246,9.191,9.191,0,0,0,9.147-7.579,8.614,8.614,0,0,0,.116-1.4v-1.4H595.115A6.332,6.332,0,0,1,601.316,572.07Z" transform="translate(-454.842 -559.995)" fill="#807e7d"/><rect width="2.895" height="27.368" transform="translate(40.526)" fill="#807e7d"/><path d="M561.737,577.684v9.825h2.895v-9.825a5.71,5.71,0,0,1,5.789-5.614v-2.807A8.566,8.566,0,0,0,561.737,577.684Z" transform="translate(-455.789 -559.995)" fill="#807e7d"/><rect width="2.895" height="18.535" transform="translate(157.474 8.982)" fill="#807e7d"/><rect width="2.895" height="2.807" transform="translate(157.474 3.368)" fill="#807e7d"/><rect width="2.895" height="27.509" transform="translate(162.105)" fill="#807e7d"/></g></g></svg>